<mxfile host="app.diagrams.net" modified="2024-04-28T11:21:17.366Z" agent="Mozilla/5.0 (X11; Linux x86_64) AppleWebKit/537.36 (KHTML, like Gecko) Chrome/123.0.0.0 Safari/537.36" version="24.2.5" etag="TH7X-Ri0oj9zxV3vKj-I" type="github">
  <diagram name="Page-1" id="eIXFkq-dwK1VUDYg19JS">
    <mxGraphModel>
      <root>
        <mxCell id="0" />
        <mxCell id="1" parent="0" />
      </root>
    </mxGraphModel>
  </diagram>
</mxfile>
